<?xml version="1.0" encoding="utf-8"?>
<!-- Generator: Adobe Illustrator 23.0.2, SVG Export Plug-In . SVG Version: 6.00 Build 0)  -->
<svg version="1.1" id="Capa_1" xmlns="http://www.w3.org/2000/svg" xmlns:xlink="http://www.w3.org/1999/xlink" x="0px" y="0px"
	 viewBox="0 0 64 64" style="enable-background:new 0 0 64 64;" xml:space="preserve">
<style type="text/css">
	.st0{fill:#58C0A5;}
	.st1{fill:none;stroke:#59C0A5;}
	.st2{fill:#59C0A5;stroke:#59C0A5;}
</style>
<path class="st0" d="M25.6,41.9"/>
<ellipse class="st1" cx="32" cy="32" rx="31.3" ry="31.2"/>
<path class="st2" d="M46.9,23.1l-1.8-1.7c-0.5-0.5-1.4-0.5-1.9,0.1L28.1,37.8c-0.5,0.5-0.5,1.4,0.1,1.9l1.8,1.7
	c0.5,0.5,1.4,0.5,1.9-0.1L47,25C47.5,24.4,47.4,23.6,46.9,23.1z"/>
<path class="st2" d="M30.1,43.3l1.7-1.8c0.5-0.5,0.5-1.4-0.1-1.9L19.9,28.7c-0.5-0.5-1.4-0.5-1.9,0.1l-1.7,1.8
	c-0.5,0.5-0.5,1.4,0.1,1.9l11.8,10.9C28.8,43.9,29.6,43.9,30.1,43.3z"/>
</svg>
